<svg xmlns="http://www.w3.org/2000/svg" version="1.1" xmlns:xlink="http://www.w3.org/1999/xlink" xmlns:svgjs="http://svgjs.dev/svgjs" width="2560" height="1440" preserveAspectRatio="none" viewBox="0 0 2560 1440"><g mask="url(&quot;#SvgjsMask1224&quot;)" fill="none"><rect width="2560" height="1440" x="0" y="0" fill="rgba(28, 24, 22, 1)"></rect><path d="M33 1440L1473 0L2080.5 0L640.5 1440z" fill="url(&quot;#SvgjsLinearGradient1225&quot;)"></path><path d="M925.8000000000001 1440L2365.8 0L2880.3 0L1440.3000000000002 1440z" fill="url(&quot;#SvgjsLinearGradient1225&quot;)"></path><path d="M2436 1440L996 0L415.5 0L1855.5 1440z" fill="url(&quot;#SvgjsLinearGradient1226&quot;)"></path><path d="M1690.1999999999998 1440L250.19999999999982 0L-534.3000000000002 0L905.6999999999998 1440z" fill="url(&quot;#SvgjsLinearGradient1226&quot;)"></path><path d="M1798.435826073188 1440L2560 678.4358260731881L2560 1440z" fill="url(&quot;#SvgjsLinearGradient1225&quot;)"></path><path d="M0 1440L761.5641739268119 1440L 0 678.4358260731881z" fill="url(&quot;#SvgjsLinearGradient1226&quot;)"></path></g><defs><mask id="SvgjsMask1224"><rect width="2560" height="1440" fill="#ffffff"></rect></mask><linearGradient x1="0%" y1="100%" x2="100%" y2="0%" id="SvgjsLinearGradient1225"><stop stop-color="rgba(124, 95, 70, 1)" offset="0"></stop><stop stop-opacity="0" stop-color="rgba(124, 95, 70, 1)" offset="0.66"></stop></linearGradient><linearGradient x1="100%" y1="100%" x2="0%" y2="0%" id="SvgjsLinearGradient1226"><stop stop-color="rgba(124, 95, 70, 1)" offset="0"></stop><stop stop-opacity="0" stop-color="rgba(124, 95, 70, 1)" offset="0.66"></stop></linearGradient></defs></svg>