<svg xmlns="http://www.w3.org/2000/svg" version="1.1" xmlns:xlink="http://www.w3.org/1999/xlink" xmlns:svgjs="http://svgjs.dev/svgjs" width="2560" height="1440" preserveAspectRatio="none" viewBox="0 0 2560 1440"><g mask="url(&quot;#SvgjsMask1157&quot;)" fill="none"><rect width="2560" height="1440" x="0" y="0" fill="url(&quot;#SvgjsLinearGradient1158&quot;)"></rect><path d="M0 0L908.56 0L0 119.38z" fill="rgba(255, 255, 255, .1)"></path><path d="M0 119.38L908.56 0L1399.69 0L0 405.7z" fill="rgba(255, 255, 255, .075)"></path><path d="M0 405.7L1399.69 0L1490.4 0L0 583.74z" fill="rgba(255, 255, 255, .05)"></path><path d="M0 583.74L1490.4 0L1980.74 0L0 1142.9z" fill="rgba(255, 255, 255, .025)"></path><path d="M2560 1440L1340.03 1440L2560 1270.95z" fill="rgba(0, 0, 0, .1)"></path><path d="M2560 1270.95L1340.03 1440L1299.69 1440L2560 832.0500000000001z" fill="rgba(0, 0, 0, .075)"></path><path d="M2560 832.05L1299.69 1440L533.8100000000001 1440L2560 519.4499999999999z" fill="rgba(0, 0, 0, .05)"></path><path d="M2560 519.4499999999999L533.81 1440L431.15999999999997 1440L2560 285.19999999999993z" fill="rgba(0, 0, 0, .025)"></path></g><defs><mask id="SvgjsMask1157"><rect width="2560" height="1440" fill="#ffffff"></rect></mask><linearGradient x1="10.94%" y1="-19.44%" x2="89.06%" y2="119.44%" gradientUnits="userSpaceOnUse" id="SvgjsLinearGradient1158"><stop stop-color="rgba(62, 49, 40, 1)" offset="0"></stop><stop stop-color="rgba(28, 24, 22, 1)" offset="1"></stop></linearGradient></defs></svg>